<?xml version="1.0" standalone="no"?>
<!DOCTYPE svg PUBLIC "-//W3C//DTD SVG 20010904//EN"
 "http://www.w3.org/TR/2001/REC-SVG-20010904/DTD/svg10.dtd">
<svg version="1.0" xmlns="http://www.w3.org/2000/svg"
 width="851.000000pt" height="813.000000pt" viewBox="0 0 851.000000 813.000000"
 preserveAspectRatio="xMidYMid meet">
<metadata>
Created by potrace 1.16, written by Peter Selinger 2001-2019
</metadata>
<g transform="translate(0.000000,813.000000) scale(0.100000,-0.100000)"
fill="#000000" stroke="none">
<path d="M5038 8055 c-3 -3 -27 -6 -54 -6 -27 0 -119 -11 -204 -25 -327 -50
-602 -56 -880 -18 -132 18 -530 25 -645 12 -86 -10 -175 -40 -322 -107 -70
-32 -254 -110 -408 -172 -154 -62 -282 -115 -285 -118 -3 -3 -12 -7 -21 -9
-35 -5 -587 -234 -658 -273 -110 -59 -195 -125 -297 -231 -106 -110 -163 -188
-288 -398 -270 -452 -593 -1080 -696 -1355 -22 -60 -62 -146 -88 -190 -27 -44
-55 -98 -64 -121 -56 -139 -54 -562 2 -691 35 -81 169 -201 368 -331 176 -115
407 -228 686 -334 151 -57 244 -75 431 -84 120 -6 137 -9 146 -26 18 -33 -7
-996 -36 -1443 -9 -126 -22 -340 -30 -475 -8 -135 -17 -263 -20 -285 -3 -22
-16 -121 -30 -220 -58 -429 -56 -793 6 -981 21 -66 74 -136 120 -159 24 -13
350 -15 2567 -15 l2538 0 31 32 c42 43 79 126 95 213 22 117 15 510 -15 915
-15 195 -38 540 -52 765 -14 226 -32 496 -40 600 -8 105 -17 348 -21 541 -6
337 -1 507 16 534 6 10 57 14 196 15 223 4 295 15 524 85 231 70 346 113 485
180 112 54 308 171 383 228 l32 25 -2 556 -3 556 -87 175 c-48 96 -117 222
-154 280 -151 236 -210 341 -276 494 -93 213 -308 662 -363 756 -112 191 -278
351 -455 440 -36 18 -353 141 -705 272 -352 131 -698 264 -769 294 -159 68
-229 87 -328 88 -43 1 -78 4 -78 8 0 8 -244 10 -252 3z m38 -124 c5 -4 34 -16
64 -25 30 -10 74 -29 98 -42 23 -14 241 -99 485 -190 243 -91 568 -213 722
-270 161 -61 301 -119 330 -138 109 -73 217 -181 295 -295 57 -85 280 -548
419 -871 47 -109 91 -186 201 -355 117 -180 149 -237 233 -420 36 -77 94 -201
129 -275 97 -205 94 -193 68 -235 -38 -61 -366 -271 -546 -349 -190 -82 -648
-221 -701 -213 -70 12 -67 8 -311 437 l-66 114 -14 -33 c-23 -58 -91 -320
-117 -451 -58 -298 -84 -637 -66 -850 8 -88 10 -207 5 -322 -5 -140 -2 -217
10 -328 9 -80 30 -361 46 -625 31 -498 47 -735 80 -1184 26 -350 27 -333 -14
-379 -89 -99 -214 -125 -736 -157 -449 -27 -968 -38 -1550 -32 -723 8 -1211
32 -1715 83 -416 42 -494 58 -557 114 l-43 38 -3 95 c-5 121 10 287 48 531 30
197 43 344 60 696 5 113 17 268 26 345 10 93 17 247 18 460 2 176 10 432 20
570 20 298 12 533 -29 824 -36 257 -100 561 -117 561 -4 0 -8 -5 -8 -10 0 -6
-25 -68 -56 -138 -65 -147 -140 -277 -194 -333 -44 -46 -84 -51 -165 -19 -429
167 -553 222 -713 319 -207 125 -394 271 -417 327 -27 65 -28 61 96 259 30 48
60 114 76 165 52 171 346 759 596 1190 225 388 297 488 443 609 119 99 177
131 415 227 118 47 340 137 494 199 154 62 357 143 450 181 94 37 180 75 193
85 12 9 70 36 129 59 l106 41 191 -30 c249 -39 501 -55 741 -47 105 3 201 8
215 10 14 2 59 7 100 11 41 4 122 15 180 25 58 11 128 22 155 25 28 4 54 11
60 16 12 11 128 12 141 0z"/>
</g>
</svg>
